<svg width="55" height="43" viewBox="0 0 55 43" fill="none" xmlns="http://www.w3.org/2000/svg">
<path d="M51.4444 19.8629C50.29 15.0778 48.661 10.4353 46.5846 6.0131C46.5138 5.87347 46.4108 5.75512 46.2851 5.66908C44.2462 4.38408 42.0945 3.31129 39.8602 2.46576C35.7176 0.870794 33.7602 0.839521 33.6801 0.839521C33.4753 0.837387 33.2769 0.914166 33.1216 1.05555C32.9664 1.19693 32.865 1.39327 32.8363 1.60796L32.5832 3.47098C28.8968 3.08379 25.1833 3.08379 21.4969 3.47098L21.2438 1.60796C21.2151 1.39327 21.1137 1.19693 20.9585 1.05555C20.8033 0.914166 20.6048 0.837387 20.4001 0.839521C20.3199 0.839521 18.3625 0.839521 14.2199 2.45235C11.9909 3.30324 9.84496 4.3805 7.81191 5.66908C7.68624 5.75512 7.5832 5.87347 7.5124 6.0131C5.43578 10.4353 3.80679 15.0777 2.65263 19.8629C0.47164 29.1914 0.0497853 33.8601 0.0497853 34.0523C0.0395239 34.173 0.0525576 34.2946 0.0880936 34.4098C0.12363 34.525 0.180925 34.6314 0.256494 34.7224C2.42507 37.1511 5.03722 39.0876 7.93425 40.4142C10.6015 41.6157 13.4097 42.4302 16.2828 42.8357C16.444 42.8514 16.6061 42.8176 16.7498 42.7384C16.8934 42.6592 17.0124 42.5379 17.0927 42.389L19.3707 38.2564C21.9069 38.7138 24.4759 38.9365 27.0485 38.922C29.6214 38.9336 32.1903 38.7078 34.7263 38.2474L37.0043 42.389C37.0779 42.524 37.1836 42.6363 37.3109 42.7147C37.4382 42.793 37.5826 42.8348 37.7299 42.8357H37.8142C40.6851 42.4356 43.4918 41.6271 46.1585 40.4321C49.0556 39.1055 51.6677 37.169 53.8363 34.7403C53.9119 34.6493 53.9691 34.5429 54.0047 34.4277C54.0402 34.3125 54.0533 34.1908 54.043 34.0701C54.0472 33.8601 53.6465 29.1914 51.4444 19.8629ZM45.5131 38.7657C43.158 39.8017 40.6956 40.5396 38.177 40.9638L36.4559 37.8364C38.4301 37.2824 42.539 35.8438 45.665 32.8326C45.7481 32.7537 45.8157 32.6582 45.8639 32.5516C45.9122 32.445 45.9401 32.3294 45.9462 32.2114C45.9523 32.0934 45.9363 31.9752 45.8993 31.8637C45.8623 31.7522 45.8049 31.6495 45.7303 31.5615C45.6558 31.4735 45.5657 31.4019 45.465 31.3508C45.3644 31.2997 45.2552 31.2701 45.1438 31.2637C45.0323 31.2572 44.9208 31.2741 44.8155 31.3133C44.7102 31.3526 44.6133 31.4134 44.5302 31.4923C40.7335 35.1692 35.0553 36.3353 34.9962 36.3487H34.9709C32.3607 36.8839 29.7072 37.1472 27.0485 37.135C24.3906 37.1561 21.7372 36.9017 19.1261 36.3755H19.1008C19.0417 36.3755 13.3846 35.196 9.56683 31.5191C9.39901 31.3597 9.17828 31.2775 8.9532 31.2905C8.72812 31.3035 8.51714 31.4106 8.36665 31.5883C8.21617 31.7661 8.13852 31.9998 8.15078 32.2382C8.16305 32.4766 8.26422 32.7 8.43204 32.8594C11.558 35.8706 15.6669 37.3271 17.6411 37.8632L15.92 40.9906C13.4008 40.5692 10.9381 39.8313 8.58391 38.7925C6.03617 37.6027 3.72439 35.9124 1.77095 33.811C1.91017 32.5109 2.47967 27.9717 4.30208 20.3007C5.41131 15.7332 6.95475 11.2965 8.90874 7.05853C10.7932 5.90648 12.7694 4.93176 14.8147 4.1456C16.3951 3.50246 18.0313 3.02511 19.6998 2.72041L19.8474 3.78819C18.16 4.23496 14.0047 5.51272 10.7143 8.04589C10.6248 8.11512 10.5491 8.20234 10.4914 8.30256C10.4338 8.40278 10.3954 8.51404 10.3783 8.63C10.3439 8.86418 10.3987 9.10324 10.5308 9.29461C10.6628 9.48597 10.8612 9.61395 11.0823 9.6504C11.1918 9.66844 11.3036 9.66348 11.4112 9.63577C11.5189 9.60807 11.6204 9.55818 11.7099 9.48895C15.4306 6.62517 20.5688 5.44123 20.9316 5.35635C22.9614 5.0988 25.0042 4.97347 27.0485 4.98106C29.0942 4.97242 31.1385 5.09776 33.1696 5.35635C33.5535 5.44123 38.6537 6.6207 42.3914 9.48895C42.5721 9.62877 42.7978 9.68684 43.0189 9.6504C43.24 9.61395 43.4384 9.48597 43.5704 9.29461C43.7025 9.10324 43.7573 8.86418 43.7229 8.63C43.6885 8.39582 43.5676 8.18571 43.3869 8.04589C40.0965 5.51272 35.9581 4.23943 34.2538 3.78819L34.4014 2.72041C36.0682 3.02651 37.7029 3.50383 39.2823 4.1456C41.3276 4.93176 43.3038 5.90648 45.1883 7.05853C47.1538 11.2951 48.7086 15.7319 49.8287 20.3007C51.6384 27.9717 52.2079 32.5109 52.3598 33.811C50.3942 35.9065 48.0708 37.5878 45.5131 38.7657Z" fill="white"/>
</svg>
