<svg xmlns="http://www.w3.org/2000/svg" width="234.35" height="41.624" viewBox="0 0 234.35 41.624">
  <g id="Group_42" data-name="Group 42" transform="translate(-25.8 -29.725)">
    <g id="Group_3" data-name="Group 3" transform="translate(25.8 29.725)">
      <path id="Path_2" data-name="Path 2" d="M128.647,70.464h-2.358l1.179-3.275h0Zm-6.812,3.144h3.144l.524-1.441h3.8l.524,1.441h3.144l-3.8-8.646h-3.537Zm-3.537,0h2.882V64.962H118.3ZM109.391,66.8h2.227a2.614,2.614,0,0,1,1.7.524,2.37,2.37,0,0,1,.524,1.834,2.229,2.229,0,0,1-.131.917,1.862,1.862,0,0,0-.262.786.922.922,0,0,1-.655.524,3.129,3.129,0,0,1-1.179.262H109.26l.131-4.847Zm-2.751,6.812h6.026a5.374,5.374,0,0,0,1.441-.131,6.09,6.09,0,0,0,1.179-.393c.262-.262.655-.393.917-.786a9.5,9.5,0,0,0,.655-1.179,6.637,6.637,0,0,0,.262-1.7,6.346,6.346,0,0,0-.393-2.358,3.072,3.072,0,0,0-1.441-1.441,4.8,4.8,0,0,0-2.358-.524H106.64Zm-12.182,0h2.882v-5.5h0l4.192,5.5h3.275V64.962h-2.882v5.371h0l-4.061-5.371H94.589l-.131,8.646Zm-4.585,0h2.882V64.962H89.873Zm-15.719,0h2.882V70.726H80.7c.393,0,.917-.131,1.179-.131.262-.131.655-.262.917-.393a2.3,2.3,0,0,0,.524-.655,1.862,1.862,0,0,0,.262-.786,1.942,1.942,0,0,0,.131-.917,3.825,3.825,0,0,0-.262-1.179,3.283,3.283,0,0,0-.524-.917,5.546,5.546,0,0,0-.917-.655,4.886,4.886,0,0,0-1.572-.262H74.022v8.777Zm3.013-6.943h2.62a1.893,1.893,0,0,1,.917.262c.262.262.262.393.262.917a1.893,1.893,0,0,1-.262.917c-.131.262-.393.262-.917.262h-2.62Zm-14.409,3.8a4.34,4.34,0,0,0,.524,1.965,3.34,3.34,0,0,0,1.572,1.048,8.077,8.077,0,0,0,2.62.262,13.512,13.512,0,0,0,2.62-.262,2.406,2.406,0,0,0,1.572-1.048,2.928,2.928,0,0,0,.524-1.965V64.831H69.307v5.24a2.029,2.029,0,0,1-.262,1.048.922.922,0,0,1-.655.524,2.468,2.468,0,0,1-1.048.262,2.029,2.029,0,0,1-1.048-.262,1.308,1.308,0,0,1-.655-.524,2.468,2.468,0,0,1-.262-1.048v-5.24H62.495l.262,5.633ZM52.67,66.8h3.144v6.681H58.7V66.8h3.275V64.831h-9.3ZM42.322,73.608H45.2V70.726h2.751c.262,0,.262,0,.393.131a.282.282,0,0,1,.262.262c.131.131.262.262.262.393a1.684,1.684,0,0,1,.131.917v.786c0,.131.131.262.131.393h3.144c-.131-.131-.131-.262-.262-.262-.131-.131-.131-.262-.131-.524s-.131-.393-.131-.786-.131-.655-.131-1.048a1.862,1.862,0,0,0-.262-.786c-.131-.262-.262-.262-.262-.524a.681.681,0,0,0-.524-.262h0a2.213,2.213,0,0,1,.655-.262c.262-.131.262-.393.524-.655a2.429,2.429,0,0,0,.262-.917c0-.262-.131-.655-.131-.917a2.74,2.74,0,0,0-.524-.786c-.262-.262-.524-.262-.917-.393A4.044,4.044,0,0,0,49,65.224H42.191l.131,8.384ZM45.073,66.8h2.882a2.429,2.429,0,0,1,.917.262.721.721,0,0,1,.262.655,1,1,0,0,1-.262.655c-.262.262-.393.262-.917.262H45.073Zm-7.729,3.668H34.986l1.179-3.275h0Zm-6.681,3.144h3.144l.524-1.441h3.8l.524,1.441H41.8L38,64.962H34.331ZM22.28,66.8h3.144v6.681h2.882V66.8h3.144V64.831h-9.3L22.28,66.8Zm-.655.655a3.844,3.844,0,0,0-.393-1.31,7.488,7.488,0,0,0-1.048-.917,2.794,2.794,0,0,0-1.572-.393,11.294,11.294,0,0,0-2.227-.131,7.929,7.929,0,0,0-1.965.262c-.524.131-.917.262-1.31.393-.262.262-.655.393-.786.655a1.494,1.494,0,0,0-.393.786,1.947,1.947,0,0,0-.131.786,3.128,3.128,0,0,0,.262,1.179c.262.262.393.655.786.917a2.641,2.641,0,0,0,1.441.393l2.882.393c.262.131.655.131.917.262a1.007,1.007,0,0,1,.393.262.406.406,0,0,1,.131.262c0,.262,0,.262-.131.393l-.262.262a.481.481,0,0,1-.393.131H17.3a2.229,2.229,0,0,1-.917-.131c-.262-.131-.393-.131-.524-.262l-.262-.262a.481.481,0,0,1-.131-.393H11.931a3.129,3.129,0,0,0,.262,1.179c.262.262.393.655.786.917a2.633,2.633,0,0,0,1.048.524,4.709,4.709,0,0,0,1.441.262A6.378,6.378,0,0,0,17.04,74h.655a2.558,2.558,0,0,0,.917-.131,2.429,2.429,0,0,0,.917-.262,2.429,2.429,0,0,1,.917-.262,7.511,7.511,0,0,0,.917-.524,1.67,1.67,0,0,0,.524-.786,2.468,2.468,0,0,0,.262-1.048,3.875,3.875,0,0,0-.262-1.31c-.262-.262-.524-.655-.917-.786a4.644,4.644,0,0,0-1.441-.393c-.131,0-.262-.131-.524-.131s-.393-.131-.655-.131-.393-.131-.786-.131-.524-.131-.786-.131-.393-.131-.655-.131-.262-.131-.393-.131c-.262,0-.393-.131-.393-.262a.406.406,0,0,1-.131-.262.72.72,0,0,1,.393-.655,2.468,2.468,0,0,1,1.048-.262,2.554,2.554,0,0,1,1.048.131c.262.131.393.262.655.262a.681.681,0,0,1,.262.524l3.013.262Z" transform="translate(81.599 -43.888)" fill="#fff"/>
      <g id="Group_5" data-name="Group 5">
        <path id="Path_1" data-name="Path 1" d="M100.074,47.829V67.871h10.873V47.829ZM73.482,46.781h6.026c1.441,0,3.013.131,3.8,1.441a2.392,2.392,0,0,1,.262,1.179,7.117,7.117,0,0,1-.262,1.441,4.039,4.039,0,0,1-3.013,1.31H73.613l-.131-5.371Zm21.09,20.3a1.181,1.181,0,0,1-.655-.131,1.575,1.575,0,0,1-.262-1.048c-.262-2.227.131-5.371-.786-7.6a5.174,5.174,0,0,0-3.93-3.013,4.709,4.709,0,0,0-1.441-.262,9.58,9.58,0,0,0,2.489-.917,6.955,6.955,0,0,0,3.668-6.026A6.392,6.392,0,0,0,92.214,43.9c-2.62-3.406-8.122-3.537-9.17-3.537H63V68.133h10.48V58.308h5.371c.262,0,2.489,0,3.537,1.048.917.917.917,2.358.917,4.716a12.746,12.746,0,0,0,.393,3.8h11l-.131-.786ZM25.8,40.1V67.871h9.825V51.5L47.283,68H58.156V40.1H48.331V56.474L36.673,40.1Z" transform="translate(-25.8 -26.509)" fill="#fff"/>
        <path id="Path_3" data-name="Path 3" d="M82.7,31.264c5.371-1.048,11.789,1.048,14.671,4.061-1.572-5.109-9.3-7.336-14.671-4.061" transform="translate(-8.164 -29.725)" fill="#f05a28"/>
        <path id="Path_4" data-name="Path 4" d="M99.6,41.756a9.5,9.5,0,0,0-.393-4.192c-2.882-3.537-10.48-6.943-17.16-4.847a2.429,2.429,0,0,1-.262-.917c-.524.917-2.227,2.751-2.882,3.668h4.192c-.131-.262-.786-.786-.917-1.048,8.777-.524,14.147,2.358,17.422,7.336" transform="translate(-9.342 -29.081)" fill="#fff"/>
        <path id="Path_5" data-name="Path 5" d="M97,46.392c-2.882-4.716-20.3-12.444-17.16-1.965-.917-2.882-2.358-6.681,1.572-8.777,4.192-2.227,14.278,1.834,17.16,5.371,1.048,1.179-.655,4.454-1.572,5.371" transform="translate(-9.369 -28.085)" fill="#00a44f"/>
        <path id="Path_6" data-name="Path 6" d="M90.317,41.266l-.524,1.048c-4.585-1.834-8.515-3.406-9.563-.786-.262.917-.131,2.489.524,2.882,0-3.406,7.991,0,7.729.262l-.262.917,3.93-.393Z" transform="translate(-8.969 -26.496)" fill="#f05a28"/>
      </g>
      <path id="Path_7" data-name="Path 7" d="M97.1,6.9h15.719V21.44H112.3l-3.93-3.8V10.961h-6.812Z" transform="translate(109.61 4.022)" fill="#fff"/>
      <path id="Path_8" data-name="Path 8" d="M142.168,105.131h-2.1v6.55h4.978v-1.572h-2.882v-4.978Zm-6.157,1.965.655,2.358h-1.441Zm-1.048-1.965-2.227,6.55h2.1l.262-.917h2.227l.262.917h2.1l-2.227-6.55Zm-6.681,3.668h1.31a.457.457,0,0,1,.262.131l.262.262v.262c0,.131,0,.262-.131.262,0,.131-.131.131-.131.262a.128.128,0,0,0-.131.131h-1.572l.131-1.31Zm0-2.227h1.179c.131,0,.262,0,.262.131.131,0,.131.131.262.262v.524c0,.131-.131.131-.131.262-.131.131-.131.131-.262.131h-1.31v-1.31Zm-1.965-1.441v6.55h3.93c.262,0,.393-.131.655-.131.262-.131.393-.131.655-.262s.262-.262.393-.262c.131-.131.262-.262.262-.393a.481.481,0,0,0,.131-.393v-.524c0-.131,0-.262-.131-.262-.131-.131-.131-.262-.262-.393l-.262-.262c-.131-.131-.131-.131-.262-.131a.457.457,0,0,1-.262-.131,1709731714224.5,1709731714224.5,0,0,1,.262-.262.128.128,0,0,0,.131-.131l.262-.262a.406.406,0,0,0,.131-.262.457.457,0,0,1,.131-.262v-.524a.457.457,0,0,0-.131-.262c0-.131-.131-.131-.131-.262-.131-.131-.131-.262-.262-.262s-.262-.262-.393-.262c-.131-.131-.262-.131-.524-.262a1.418,1.418,0,0,0-.786-.131h-.524l-3.013-.262Zm-4.585,1.441c.262,0,.262,0,.393.131s.262.131.262.262l.262.262a.406.406,0,0,1,.131.262c0,.131.131.131.131.262s0,.262.131.262v.393a1.181,1.181,0,0,1-.131.655c0,.262-.131.262-.131.393-.131.131-.131.262-.262.262-.131.131-.262.262-.393.262a.481.481,0,0,1-.393.131h-.262c-.131,0-.262,0-.262-.131a.282.282,0,0,1-.262-.262l-.262-.262c-.131-.131-.131-.262-.262-.393a.982.982,0,0,1-.131-.655v-.524c0-.131.131-.262.131-.393.131-.131.131-.262.262-.393,0-.131.131-.131.262-.262a.406.406,0,0,1,.262-.131A1.305,1.305,0,0,1,121.733,106.572Zm0-1.572h-.393a.788.788,0,0,0-.524.131.681.681,0,0,0-.524.262c-.262.131-.393.262-.524.262-.262.131-.262.262-.524.524a4.361,4.361,0,0,0-.393.786c-.131.262-.131.393-.262.655a.788.788,0,0,0-.131.524v.262a2.229,2.229,0,0,0,.131.917,1.893,1.893,0,0,1,.262.917,2.741,2.741,0,0,0,.524.786,1.67,1.67,0,0,0,.786.524c.262.131.393.262.655.262a.99.99,0,0,0,.524.131h.786a.788.788,0,0,0,.524-.131c.262,0,.393-.131.655-.262s.393-.262.655-.393a.922.922,0,0,0,.524-.655c.131-.131.131-.262.262-.262.131-.131.131-.262.262-.393a.788.788,0,0,0,.131-.524c0-.262.131-.393.131-.786a2.229,2.229,0,0,0-.131-.917,2.429,2.429,0,0,1-.262-.917,2.74,2.74,0,0,0-.524-.786,1.67,1.67,0,0,0-.786-.524c-.262-.131-.393-.262-.655-.262s-.393-.131-.524-.131Zm-6.419.131h-2.1v6.55H118.2v-1.572h-2.882v-4.978Zm-3.668,2.227h0V107.1a.457.457,0,0,0-.131-.262c-.131-.131-.131-.262-.262-.393l-.262-.262-.262-.262a.681.681,0,0,0-.524-.262c-.262-.131-.393-.262-.655-.262a1.942,1.942,0,0,0-.917-.131,2.554,2.554,0,0,0-1.048.131,1.862,1.862,0,0,1-.786.262,1.808,1.808,0,0,0-.524.393l-.393.393c-.131.131-.262.262-.262.393l-.262.524c0,.262-.131.262-.131.393v.655a2.229,2.229,0,0,0,.131.917c.131.262.131.524.262.786s.262.393.262.524l.262.262c.131.131.262.131.262.262.131.131.131.131.262.131.131.131.262.131.393.262s.262.131.524.131.393.131.786.131a1.661,1.661,0,0,0,.786-.131c.262-.131.393-.131.524-.262s.262-.262.393-.262l.131-.131.131-.131.131.655h1.441v-3.537h-2.882v1.441h.917c0,.131,0,.131-.131.131v.131a.128.128,0,0,1-.131.131l-.262.262a.406.406,0,0,1-.262.131h-.786a.457.457,0,0,1-.262-.131.457.457,0,0,0-.262-.131l-.131-.131-.131-.131-.131-.131a.457.457,0,0,0-.131-.262c0-.131-.131-.262-.131-.393v-.917c0-.131,0-.262.131-.262a.457.457,0,0,1,.131-.262c.131-.131.131-.262.262-.262,0-.131.131-.131.262-.131a.406.406,0,0,1,.262-.131,1.319,1.319,0,0,1,.393-.131.481.481,0,0,1,.393.131.457.457,0,0,1,.262.131l.262.262.131.131c0,.131,0,.131.131.131s0,.131,0,.131l1.834-.393Zm-13.1-.786c.262,0,.262,0,.393.131s.262.131.262.262l.262.262a.406.406,0,0,1,.131.262c0,.131.131.131.131.262s0,.262.131.262v.393a1.181,1.181,0,0,1-.131.655c0,.262-.131.262-.131.393-.131.131-.131.262-.262.262-.131.131-.262.262-.393.262a.481.481,0,0,1-.393.131h-.262c-.131,0-.262,0-.262-.131a.282.282,0,0,1-.262-.262l-.262-.262c-.131-.131-.131-.262-.262-.393,0-.262-.131-.393-.131-.655v-.524c0-.131.131-.262.131-.393.131-.131.131-.262.262-.393,0-.131.131-.131.262-.262a.406.406,0,0,1,.262-.131C98.154,106.572,98.285,106.572,98.547,106.572Zm0-1.572h-.393a.788.788,0,0,0-.524.131.681.681,0,0,0-.524.262c-.262.131-.393.262-.524.262-.262.131-.262.262-.524.524a4.361,4.361,0,0,0-.393.786c-.131.262-.131.393-.262.655a.788.788,0,0,0-.131.524v.262a2.229,2.229,0,0,0,.131.917,1.893,1.893,0,0,1,.262.917,2.741,2.741,0,0,0,.524.786,1.67,1.67,0,0,0,.786.524c.262.131.393.262.655.262a.99.99,0,0,0,.524.131h.786a.788.788,0,0,0,.524-.131c.262,0,.393-.131.655-.262s.393-.262.655-.393a.922.922,0,0,0,.524-.655c.131-.131.131-.262.262-.262.131-.131.131-.262.262-.393a.788.788,0,0,0,.131-.524c0-.262.131-.393.131-.786a2.229,2.229,0,0,0-.131-.917,2.429,2.429,0,0,1-.262-.917,2.74,2.74,0,0,0-.524-.786,1.67,1.67,0,0,0-.786-.524c-.262-.131-.393-.262-.655-.262S99.333,105,99.2,105Zm-4.454,2.358h0V107.1a.457.457,0,0,0-.131-.262c-.131-.131-.131-.262-.262-.393l-.262-.262-.262-.262a.915.915,0,0,0-.524-.262c-.262-.131-.393-.262-.655-.262a1.942,1.942,0,0,0-.917-.131,2.554,2.554,0,0,0-1.048.131,1.862,1.862,0,0,1-.786.262,1.808,1.808,0,0,0-.524.393l-.393.393c-.131.131-.262.262-.262.393l-.262.524c0,.262-.131.262-.131.393v.655a2.229,2.229,0,0,0,.131.917c.131.262.131.524.262.786s.262.393.262.524l.262.262c.131.131.262.131.262.262.131.131.131.131.262.131.131.131.262.131.393.262s.262.131.524.131.393.131.786.131a1.418,1.418,0,0,0,.786-.131c.262-.131.393-.131.524-.262s.262-.262.393-.262l.131-.131.131-.131.131.655h1.441v-3.537H91.473v1.441h.917c0,.131,0,.131-.131.131v.131a.128.128,0,0,1-.131.131l-.262.262a.406.406,0,0,1-.262.131h-.786a.457.457,0,0,1-.262-.131c-.131,0-.131-.131-.262-.131l-.131-.131-.131-.131-.131-.131a.457.457,0,0,0-.131-.262c0-.131-.131-.262-.131-.393v-.917c0-.131,0-.262.131-.262a.457.457,0,0,1,.131-.262c.131-.131.131-.262.262-.262,0-.131.131-.131.262-.131a.406.406,0,0,1,.262-.131c.131,0,.262-.131.393-.131a.481.481,0,0,1,.393.131.457.457,0,0,1,.262.131l.262.262.131.131c0,.131,0,.131.131.131s0,.131,0,.131l1.834-.393ZM84.4,109.716H82.435v1.834H84.4Zm-7.86-4.585h-2.1v6.55h4.978v-1.572H76.54v-4.978ZM70.383,107.1l.655,2.358H69.6Zm-1.048-1.965-2.227,6.55h2.1l.262-.917h2.227l.262.917h2.1l-2.227-6.55ZM62.655,108.8h1.31a.457.457,0,0,1,.262.131l.262.262v.262c0,.131,0,.262-.131.262,0,.131-.131.131-.131.262a.128.128,0,0,0-.131.131h-1.31l-.131-1.31Zm0-2.227h1.179c.131,0,.262,0,.262.131.131,0,.131.131.262.262v.524c0,.131-.131.131-.131.262,0-.131,0-.131-.131-.131H62.655v-1.048Zm-1.965-1.441v6.55h3.93c.262,0,.393-.131.655-.131.262-.131.393-.131.655-.262s.262-.262.393-.262c.131-.131.262-.262.262-.393a.481.481,0,0,0,.131-.393v-.524c0-.131,0-.262-.131-.262,0-.131-.131-.262-.262-.393l-.262-.262c-.131-.131-.131-.131-.262-.131a.457.457,0,0,1-.262-.131,6361.273,6361.273,0,0,1,.262-.262c0-.131.131,0,.131-.131l.262-.262a.406.406,0,0,0,.131-.262.457.457,0,0,1,.131-.262v-.524a.457.457,0,0,0-.131-.262c0-.131-.131-.131-.131-.262-.131-.131-.131-.262-.262-.262-.131-.131-.262-.262-.393-.262-.131-.131-.262-.131-.524-.262a1.418,1.418,0,0,0-.786-.131H63.7l-3.013-.262Zm-4.454,1.441c.262,0,.262,0,.393.131s.262.131.262.262l.262.262a.406.406,0,0,1,.131.262c0,.131.131.131.131.262s0,.262.131.262v.393a1.181,1.181,0,0,1-.131.655c0,.262-.131.262-.131.393-.131.131-.131.262-.262.262-.131.131-.262.262-.393.262a.481.481,0,0,1-.393.131h-.262c-.131,0-.262,0-.262-.131a.282.282,0,0,1-.262-.262l-.262-.262c-.131-.131-.131-.262-.262-.393,0-.262-.131-.393-.131-.655v-.524c0-.131.131-.262.131-.393.131-.131.131-.262.262-.393,0-.131.131-.131.262-.262a.406.406,0,0,1,.262-.131A.788.788,0,0,1,56.236,106.572Zm0-1.572h-.393a.99.99,0,0,0-.524.131.681.681,0,0,0-.524.262c-.262.131-.393.262-.524.262-.262.131-.262.262-.524.524a4.361,4.361,0,0,0-.393.786c-.131.262-.131.393-.262.655,0,.262-.131.262-.131.524v.262a2.229,2.229,0,0,0,.131.917,1.893,1.893,0,0,1,.262.917,2.741,2.741,0,0,0,.524.786,1.67,1.67,0,0,0,.786.524c.262.131.393.262.655.262a.99.99,0,0,0,.524.131h.786a.99.99,0,0,0,.524-.131c.262,0,.393-.131.655-.262s.393-.262.655-.393a.922.922,0,0,0,.524-.655c.131-.131.131-.262.262-.262.131-.131.131-.262.262-.393a.788.788,0,0,0,.131-.524c0-.262.131-.393.131-.786a2.229,2.229,0,0,0-.131-.917,2.429,2.429,0,0,1-.262-.917,2.74,2.74,0,0,0-.524-.786,1.67,1.67,0,0,0-.786-.524c-.262-.131-.393-.262-.655-.262s-.393-.131-.524-.131Zm-6.55.131h-2.1v6.55h4.978v-1.572H49.817l-.131-4.978Zm-3.668,2.227h0V107.1a.457.457,0,0,0-.131-.262c-.131-.131-.131-.262-.262-.393l-.262-.262-.262-.262a.681.681,0,0,0-.524-.262c-.262,0-.393-.262-.655-.262a1.942,1.942,0,0,0-.917-.131,2.554,2.554,0,0,0-1.048.131,1.862,1.862,0,0,1-.786.262,1.809,1.809,0,0,0-.524.393l-.393.393c-.131.131-.262.262-.262.393l-.262.524c0,.262-.131.262-.131.393v.655a2.229,2.229,0,0,0,.131.917c.131.262.131.524.262.786s.262.393.262.524l.262.262c.131.131.262.131.262.262.131.131.131.131.262.131.131.131.262.131.393.262s.262.131.524.131.393.131.786.131a1.661,1.661,0,0,0,.786-.131c.262-.131.393-.131.524-.262s.262-.262.393-.262l.131-.131.131-.131.131.655H46.28v-3.537H43.4v1.441h1.179c0,.131,0,.131-.131.131s0,.131,0,.131a.128.128,0,0,1-.131.131l-.262.262a.406.406,0,0,1-.262.131h-.786a.457.457,0,0,1-.262-.131.457.457,0,0,0-.262-.131l-.131-.131-.131-.131-.131-.131a.457.457,0,0,0-.131-.262c0-.131-.131-.262-.131-.393v-.917c0-.131,0-.262.131-.262a.457.457,0,0,1,.131-.262c.131-.131.131-.262.262-.262,0-.131.131-.131.262-.131a.406.406,0,0,1,.262-.131c.131,0,.262-.131.393-.131.262,0,.262,0,.393.131a.457.457,0,0,1,.262.131l.262.262.131.131c0,.131,0,.131.131.131v.131l1.572-.393Zm-9.432-2.227H34.1l-1.965,2.227v-2.227h-2.1v6.55h2.1v-1.965l.524-.655L34.1,111.55h2.489L34.1,107.62Zm-14.409,0v6.55h1.965v-3.8l2.227,3.8h2.1v-6.55H26.5v3.8l-2.227-3.8Zm-1.572,0h-2.1v6.55h2.1Zm-9.694,0v6.55h2.1v-2.62h1.965v2.62h2.1v-6.55H14.842v2.227H13.008v-2.227Zm-.655,0H4.1V106.7H6.065v4.716h2.1V106.7h1.965l.131-1.572Z" transform="translate(89.299 -70.319)" fill="#fff" opacity="0.3"/>
    </g>
    <g id="Group_4" data-name="Group 4" transform="translate(119.199 29.725)">
      <path id="Path_9" data-name="Path 9" d="M116.33,4.1v.775h-1.1V8.751H114.2V4.875h-1.1V4.1Z" transform="translate(-113.1 -4.1)" fill="#242424" opacity="0.6"/>
      <path id="Path_10" data-name="Path 10" d="M118.8,4.1h1.55l.775,3.294h0L121.9,4.1h1.486V8.686h-.969V5.069h0l-.9,3.682h-.775l-.9-3.682h0V8.751h-.969V4.1Z" transform="translate(-115.118 -4.1)" fill="#242424" opacity="0.6"/>
    </g>
  </g>
</svg>
