<svg width="51" height="54" viewBox="0 0 51 54" fill="none" xmlns="http://www.w3.org/2000/svg">
<path d="M48.726 33.9136C48.7022 33.8298 48.5527 33.2698 48.3447 32.5953C48.1368 31.9207 47.9245 31.4445 47.9245 31.4445C48.7541 30.1792 48.7693 29.0483 48.6588 28.4089C48.5418 27.6153 48.2169 26.9386 47.5605 26.2397C46.9063 25.5409 45.5676 24.8245 43.6851 24.2866C43.4706 24.2248 42.7601 24.0264 42.6972 24.0066C42.6929 23.9647 42.6452 21.639 42.6019 20.6381C42.5716 19.9151 42.5088 18.7886 42.1665 17.6775C41.7571 16.174 41.0422 14.8602 40.1519 14.0181C42.6106 11.4256 44.1443 8.56856 44.1421 6.11717C44.1356 1.40397 38.447 -0.022332 31.4369 2.93168C31.4304 2.93389 29.9617 3.56878 29.9509 3.57319C29.9444 3.56657 27.2668 0.892531 27.2257 0.857259C19.2365 -6.23678 -5.75153 22.0292 2.2377 28.8939L3.98371 30.3996C3.53096 31.5944 3.35333 32.9612 3.49847 34.4316C3.68477 36.3209 4.64226 38.1329 6.19548 39.5306C7.66855 40.8599 9.6052 41.6998 11.4855 41.6976C14.5941 48.9878 21.6974 53.4607 30.0267 53.7121C38.9604 53.9832 46.4601 49.7153 49.6033 42.0525C49.8091 41.5146 50.6821 39.0919 50.6821 36.9513C50.6821 34.8042 49.4885 33.9136 48.726 33.9136ZM12.1722 39.6518C11.9015 39.6981 11.6242 39.718 11.3447 39.7114C8.64554 39.6386 5.7319 37.1652 5.44162 34.2332C5.12101 30.9926 6.74788 28.4993 9.62903 27.9063C9.97347 27.8358 10.3894 27.7939 10.8378 27.8181C12.4517 27.9085 14.8303 29.1695 15.374 32.7474C15.8571 35.9174 15.0924 39.1448 12.1722 39.6518ZM9.15895 25.9686C7.36527 26.3235 5.78389 27.3574 4.81773 28.7859C4.23934 28.2965 3.1627 27.3464 2.97423 26.976C1.43184 23.9934 4.65743 18.1956 6.91252 14.9219C12.4842 6.83142 21.2099 0.705149 25.25 1.81621C25.9064 2.0058 28.0814 4.57182 28.0814 4.57182C28.0814 4.57182 24.0434 6.85126 20.2979 10.0301C15.2549 13.985 11.4422 19.7321 9.15895 25.9686ZM37.483 38.4394C37.5415 38.4151 37.5827 38.3468 37.5762 38.2784C37.5675 38.1947 37.4938 38.1352 37.4137 38.144C37.4137 38.144 33.1873 38.7811 29.1927 37.293C29.6281 35.8535 30.7849 36.3738 32.5331 36.5171C35.685 36.7088 38.5077 36.2393 40.5959 35.6309C42.4048 35.1018 44.779 34.0613 46.6247 32.5798C47.2464 33.9709 47.4674 35.5008 47.4674 35.5008C47.4674 35.5008 47.9483 35.4126 48.3512 35.6661C48.7325 35.9042 49.9357 37.4179 49.7451 38.6965C49.3573 41.0883 49.2846 42.0128 47.6057 43.7985C46.5832 44.9184 43.4901 47.928 42.0712 48.6357C41.3173 49.0391 40.5136 49.3874 39.6666 49.6696C33.3368 51.7726 23.1537 47.4249 21.0654 42.4582C20.8986 42.0856 20.7578 41.6932 20.6474 41.2854C19.757 38.0117 20.513 34.0855 22.8743 31.6121C22.8743 31.6121 21.9484 31.6121 22.8743 31.6099C23.0194 31.4533 23.1689 31.2682 23.1689 31.0345C23.1689 30.8383 23.0476 30.6333 22.9414 30.4878C22.1161 29.2687 19.2523 27.1899 19.8263 23.1667C20.2379 20.2766 26.4263 16.2066 28.7421 16.3278C28.937 16.3389 29.1342 16.3499 29.3291 16.3631C30.3321 16.4226 31.2073 16.5549 32.0348 16.5902C33.4169 16.6519 34.6604 16.4469 36.1334 15.1969C36.6295 14.7759 37.0281 14.4099 37.7018 14.2953C37.7733 14.2821 37.9488 14.2181 38.3019 14.2358C38.6615 14.2556 39.0037 14.3548 39.3113 14.5642C40.492 15.3645 40.6588 19.3353 40.7194 20.7506C40.7541 21.5596 40.8494 23.515 40.8841 24.0771C40.9599 25.3601 41.2913 25.5431 41.9607 25.768C42.3376 25.8936 42.6886 25.9884 43.2041 26.1361C44.766 26.5836 45.6932 27.0356 46.2781 27.6175C46.6269 27.9813 46.7893 28.3671 46.8392 28.7352C47.0233 30.102 45.795 31.7928 42.5456 33.3272C38.9929 35.0048 34.682 35.4302 31.7034 35.093C31.4759 35.0665 30.6636 34.9739 30.6592 34.9739C28.2763 34.6476 26.9181 37.7802 28.3478 39.9274C29.2685 41.3118 31.7792 42.2112 34.2899 42.2112C40.0479 42.2112 44.4736 39.7092 46.1199 37.5488C46.1698 37.4848 46.1741 37.476 46.2521 37.357C46.3322 37.2335 46.2673 37.1652 46.1654 37.2335C44.8202 38.1704 38.8456 41.8872 32.4572 40.7695C32.4572 40.7695 31.6817 40.6395 30.9712 40.3595C30.408 40.1368 29.2295 39.5857 29.0865 38.3534C34.2358 39.9737 37.483 38.4394 37.483 38.4394ZM29.314 37.4584C29.3161 37.4606 29.3161 37.4606 29.3161 37.4628C29.3161 37.4606 29.3161 37.4584 29.314 37.4584ZM19.4488 14.8888C21.4287 12.5587 23.868 10.535 26.0516 9.39745C26.1274 9.35777 26.2075 9.44153 26.1664 9.51649C25.9931 9.83614 25.6595 10.5195 25.5533 11.0398C25.536 11.1214 25.6226 11.1809 25.6898 11.1346C27.0481 10.1911 29.4136 9.18141 31.4868 9.05134C31.5756 9.04473 31.6189 9.16157 31.5474 9.21668C31.2311 9.46358 30.8867 9.80307 30.6354 10.147C30.5921 10.2065 30.6332 10.2903 30.7047 10.2903C32.1605 10.3013 34.2141 10.8193 35.5507 11.5821C35.6417 11.6328 35.5767 11.8114 35.4749 11.7893C33.4516 11.3176 30.1372 10.9582 26.695 11.8136C23.6232 12.5763 21.2771 13.7535 19.5657 15.0211C19.4834 15.0872 19.3794 14.9726 19.4488 14.8888Z" fill="white"/>
</svg>
