<svg width="81" height="82" viewBox="0 0 81 82" fill="none" xmlns="http://www.w3.org/2000/svg">
<path d="M14.5588 3.30002C17.0154 0.384475 21.3866 0.0100974 24.3021 2.46659C27.2177 4.92312 27.592 9.2943 25.1355 12.2099C22.679 15.1254 18.3078 15.4998 15.3923 13.0433C12.475 10.5873 12.1024 6.21734 14.5588 3.30002Z" fill="white"/>
<path d="M46.0274 44.8861C49.2943 41.008 48.795 35.1619 44.9163 31.895C41.0382 28.6281 35.1921 29.1273 31.9251 33.006C28.6582 36.8842 29.1575 42.7303 33.0362 45.9972C36.9149 49.2636 42.761 48.7643 46.0274 44.8861Z" fill="white"/>
<path d="M46.4902 69.3821C49.4111 71.8432 49.7843 76.2057 47.3237 79.1266C44.8626 82.0479 40.5001 82.4212 37.5786 79.96C34.6578 77.4994 34.2846 73.1364 36.7458 70.2156C39.2064 67.2947 43.5688 66.9215 46.4902 69.3821" fill="white"/>
<path d="M77.8571 37.8358C80.7779 40.2964 81.1511 44.6593 78.6905 47.5802C76.2299 50.5011 71.8669 50.8743 68.9461 48.4136C66.0248 45.9525 65.652 41.5901 68.1126 38.6686C70.5733 35.7477 74.9362 35.3745 77.8571 37.8357" fill="white"/>
<path d="M11.6891 44.0075C14.61 46.4682 14.9832 50.8311 12.5225 53.752C10.0619 56.6728 5.69896 57.046 2.7781 54.5854C-0.143197 52.1243 -0.515953 47.7618 1.94466 44.841C4.40533 41.9197 8.76825 41.5463 11.6891 44.0075Z" fill="white"/>
<path d="M59.5562 2.46627C62.4775 4.92693 62.8508 9.28986 60.3896 12.2107C57.9289 15.1316 53.566 15.5048 50.6451 13.0442C47.7243 10.5835 47.3511 6.22056 49.8117 3.29971C52.2728 0.37841 56.6353 0.00565374 59.5562 2.46627Z" fill="white"/>
<path d="M23.728 16.9143L31.665 29.1141C32.9178 28.181 34.337 27.5025 35.8593 27.1069L27.4431 14.1726C26.4207 15.3839 25.15 16.313 23.728 16.9143Z" fill="white"/>
<path d="M29.6414 9.46967L45.628 10.7869C45.1505 9.28766 45.0319 7.69047 45.2876 6.13589L29.3452 4.82092C29.5514 5.49309 29.6896 6.19233 29.7519 6.91001C29.8256 7.77686 29.7853 8.63504 29.6418 9.46961L29.6414 9.46967Z" fill="white"/>
<path d="M48.891 15.525L42.4077 27.1869C43.8852 27.6137 45.2761 28.321 46.5145 29.2887L53.0698 17.496C51.5538 17.1821 50.1265 16.5145 48.891 15.525Z" fill="white"/>
<path d="M72.3292 33.2464L62.6504 14.2281C61.609 15.4446 60.3177 16.3725 58.8726 16.9623L67.9541 34.8054C69.2834 33.9357 70.7879 33.4132 72.3292 33.2468V33.2464Z" fill="white"/>
<path d="M51.1999 38.3121C51.284 39.8851 51.0697 41.4294 50.5796 42.8819L63.542 44.4198C63.5224 44.273 63.5057 44.1244 63.493 43.9746C63.3704 42.5479 63.5535 41.1425 64.0143 39.8315L51.1999 38.3121Z" fill="white"/>
<path d="M65.7879 49.5289L58.8738 55.7074L47.1382 66.1362C47.5898 66.4069 48.0258 66.7156 48.441 67.0652C49.2474 67.7438 49.9259 68.5334 50.4691 69.402L62.4691 58.7384L69.5986 52.3219C68.6748 51.9412 67.7947 51.4136 66.9911 50.7362C66.5516 50.3647 66.1519 49.9598 65.7879 49.529L65.7879 49.5289Z" fill="white"/>
<path d="M40.0188 51.1424C39.6599 51.1735 39.3028 51.189 38.9469 51.189C38.4694 51.189 37.9971 51.1591 37.5288 51.1049L38.7418 65.2896C40.2129 64.7775 41.7854 64.6163 43.3273 64.8161L42.1275 50.776C41.4432 50.9551 40.74 51.0801 40.0188 51.1423L40.0188 51.1424Z" fill="white"/>
<path d="M18.4264 17.6017C16.8742 17.3811 15.3996 16.7965 14.1043 15.8795L13.5842 17.5504L6.79053 39.3643C8.33758 39.2946 9.90145 39.5838 11.3488 40.2404L17.4282 20.7887L18.4264 17.6017Z" fill="white"/>
<path d="M17.1402 48.448C17.1477 48.5385 17.1518 48.6289 17.1569 48.7205L28.8528 45.8434C27.9571 44.5273 27.3408 43.0672 27.012 41.5513L15.8374 44.2993C16.5649 45.5515 17.0124 46.9604 17.1403 48.4481L17.1402 48.448Z" fill="white"/>
<path d="M14.841 55.7041C14.0876 56.598 13.2075 57.3243 12.2515 57.8829L32.6705 71.3073C33.0587 70.2251 33.6404 69.1929 34.4238 68.2628C34.6663 67.9736 34.9243 67.7041 35.1916 67.4512L15.6455 54.6022C15.4047 54.9829 15.1375 55.3533 14.8409 55.704L14.841 55.7041Z" fill="white"/>
</svg>
