<svg xmlns="http://www.w3.org/2000/svg" width="128.648" height="48.785" viewBox="0 0 128.648 48.785">
  <g id="Group_59" data-name="Group 59" transform="translate(1929.948 130)">
    <path id="Path_61" data-name="Path 61" d="M20.592-25.2v11.448L9.871-25.2H2.052V0h9.27V-11.448L22.042,0h7.819V-25.2ZM55.373,0H65.53L59.605-7.776a8.379,8.379,0,0,0,5.32-7.92c0-5.832-5-9.5-12.857-9.5H38.486V0H48V-6.336h2.579Zm-.04-15.7c0,1.836-1.249,2.952-3.869,2.952H48v-5.9h3.466C54.084-18.648,55.333-17.532,55.333-15.7ZM72.542,0h9.512V-25.2H72.542ZM101.2.576c8.746,0,13.139-3.888,13.139-8.5,0-9.288-15.6-6.768-15.6-9.792,0-.864.887-1.584,3.668-1.584a19.06,19.06,0,0,1,7.859,1.872l2.862-6.156a24.609,24.609,0,0,0-10.64-2.2c-8.746,0-13.139,3.816-13.139,8.5,0,9.4,15.6,6.84,15.6,10.008,0,.864-.967,1.368-3.668,1.368a21.142,21.142,0,0,1-9.31-2.3L88.906-2.016C91.727-.468,96.483.576,101.2.576ZM121.189,0H130.7V-25.2h-9.512Z" transform="translate(-1932 -81.791)" fill="#091632"/>
    <g id="Group_59-2" data-name="Group 59" transform="translate(-1864.624 -130)">
      <path id="Path_57" data-name="Path 57" d="M82.7,31.193c5.123-1,11.246,1,13.995,3.874-1.5-4.873-8.872-7-13.995-3.874" transform="translate(-77.842 -29.725)" fill="#f05a28"/>
      <path id="Path_58" data-name="Path 58" d="M98.643,41.3a9.063,9.063,0,0,0-.375-4c-2.749-3.374-10-6.622-16.369-4.623a2.317,2.317,0,0,1-.25-.875c-.5.875-2.124,2.624-2.749,3.5h4c-.125-.25-.75-.75-.875-1,8.372-.5,13.495,2.249,16.619,7" transform="translate(-78.79 -29.207)" fill="#091632"/>
      <path id="Path_59" data-name="Path 59" d="M96.165,45.867C93.416,41.369,76.8,34,79.8,43.993c-.875-2.749-2.249-6.373,1.5-8.372,4-2.124,13.62,1.749,16.369,5.123,1,1.125-.625,4.248-1.5,5.123" transform="translate(-78.812 -28.405)" fill="#00a44f"/>
      <path id="Path_60" data-name="Path 60" d="M89.845,41.214l-.5,1c-4.373-1.749-8.122-3.249-9.122-.75-.25.875-.125,2.374.5,2.749,0-3.249,7.622,0,7.372.25l-.25.875,3.749-.375Z" transform="translate(-78.49 -27.125)" fill="#f05a28"/>
    </g>
  </g>
</svg>
