<svg width="445" height="130" viewBox="0 0 445 130" fill="none" xmlns="http://www.w3.org/2000/svg">
<g filter="url(#filter0_d_299_2402)">
<path d="M29.57 94H27.1241V96.4459H29.57V94ZM29.57 26.5V24.0541H27.1241V26.5H29.57ZM40.37 26.5L42.7342 25.8733L42.252 24.0541H40.37V26.5ZM54.23 78.79V81.2359H57.4086L56.5942 78.1633L54.23 78.79ZM51.35 78.79L48.9858 78.1633L48.1714 81.2359H51.35V78.79ZM65.21 26.5V24.0541H63.328L62.8458 25.8733L65.21 26.5ZM76.01 26.5H78.4559V24.0541H76.01V26.5ZM76.01 94V96.4459H78.4559V94H76.01ZM64.76 94H62.3141V96.4459H64.76V94ZM64.76 59.71L65.2107 57.306L62.3141 56.7629V59.71H64.76ZM66.2 59.98L68.555 60.6404L69.2763 58.0683L66.6507 57.576L66.2 59.98ZM56.66 94V96.4459H58.5143L59.015 94.6604L56.66 94ZM48.92 94L46.565 94.6604L47.0657 96.4459H48.92V94ZM39.38 59.98L38.9293 57.576L36.3037 58.0683L37.025 60.6404L39.38 59.98ZM40.82 59.71H43.2659V56.7629L40.3693 57.306L40.82 59.71ZM40.82 94V96.4459H43.2659V94H40.82ZM32.0159 94V26.5H27.1241V94H32.0159ZM29.57 28.9459H40.37V24.0541H29.57V28.9459ZM38.0058 27.1267L51.8658 79.4167L56.5942 78.1633L42.7342 25.8733L38.0058 27.1267ZM54.23 76.3441H51.35V81.2359H54.23V76.3441ZM53.7142 79.4167L67.5742 27.1267L62.8458 25.8733L48.9858 78.1633L53.7142 79.4167ZM65.21 28.9459H76.01V24.0541H65.21V28.9459ZM73.5641 26.5V94H78.4559V26.5H73.5641ZM76.01 91.5541H64.76V96.4459H76.01V91.5541ZM67.2059 94V59.71H62.3141V94H67.2059ZM64.3093 62.114L65.7493 62.384L66.6507 57.576L65.2107 57.306L64.3093 62.114ZM63.845 59.3196L54.305 93.3396L59.015 94.6604L68.555 60.6404L63.845 59.3196ZM56.66 91.5541H48.92V96.4459H56.66V91.5541ZM51.275 93.3396L41.735 59.3196L37.025 60.6404L46.565 94.6604L51.275 93.3396ZM39.8307 62.384L41.2707 62.114L40.3693 57.306L38.9293 57.576L39.8307 62.384ZM38.3741 59.71V94H43.2659V59.71H38.3741ZM40.82 91.5541H29.57V96.4459H40.82V91.5541ZM119.76 26.5H122.206V24.0541H119.76V26.5ZM119.76 38.65V41.0959H122.206V38.65H119.76ZM104.01 38.65V36.2041H101.564V38.65H104.01ZM104.01 52.15H101.564V54.5959H104.01V52.15ZM117.33 52.15H119.776V49.7041H117.33V52.15ZM117.33 64.3V66.7459H119.776V64.3H117.33ZM104.01 64.3V61.8541H101.564V64.3H104.01ZM104.01 81.85H101.564V84.2959H104.01V81.85ZM119.76 81.85H122.206V79.4041H119.76V81.85ZM119.76 94V96.4459H122.206V94H119.76ZM91.8598 94H89.414V96.4459H91.8598V94ZM91.8598 26.5V24.0541H89.414V26.5H91.8598ZM117.314 26.5V38.65H122.206V26.5H117.314ZM119.76 36.2041H104.01V41.0959H119.76V36.2041ZM101.564 38.65V52.15H106.456V38.65H101.564ZM104.01 54.5959H117.33V49.7041H104.01V54.5959ZM114.884 52.15V64.3H119.776V52.15H114.884ZM117.33 61.8541H104.01V66.7459H117.33V61.8541ZM101.564 64.3V81.85H106.456V64.3H101.564ZM104.01 84.2959H119.76V79.4041H104.01V84.2959ZM117.314 81.85V94H122.206V81.85H117.314ZM119.76 91.5541H91.8598V96.4459H119.76V91.5541ZM94.3057 94V26.5H89.414V94H94.3057ZM91.8598 28.9459H119.76V24.0541H91.8598V28.9459ZM137.198 94H134.752V96.4459H137.198V94ZM137.198 38.65H139.644V36.2041H137.198V38.65ZM127.298 38.65H124.852V41.0959H127.298V38.65ZM127.298 26.5V24.0541H124.852V26.5H127.298ZM159.248 26.5H161.694V24.0541H159.248V26.5ZM159.248 38.65V41.0959H161.694V38.65H159.248ZM149.348 38.65V36.2041H146.902V38.65H149.348ZM149.348 94V96.4459H151.794V94H149.348ZM139.644 94V38.65H134.752V94H139.644ZM137.198 36.2041H127.298V41.0959H137.198V36.2041ZM129.744 38.65V26.5H124.852V38.65H129.744ZM127.298 28.9459H159.248V24.0541H127.298V28.9459ZM156.802 26.5V38.65H161.694V26.5H156.802ZM159.248 36.2041H149.348V41.0959H159.248V36.2041ZM146.902 38.65V94H151.794V38.65H146.902ZM149.348 91.5541H137.198V96.4459H149.348V91.5541ZM162.44 94L160.037 93.545L159.488 96.4459H162.44V94ZM175.22 26.5V24.0541H173.194L172.817 26.045L175.22 26.5ZM188.36 26.5L190.765 26.0543L190.394 24.0541H188.36V26.5ZM200.87 94V96.4459H203.811L203.275 93.5543L200.87 94ZM188.45 94L186.03 94.3517L186.334 96.4459H188.45V94ZM186.92 83.47L189.341 83.1183L189.036 81.0241H186.92V83.47ZM176.48 83.47V81.0241H174.382L174.063 83.0981L176.48 83.47ZM174.86 94V96.4459H176.959L177.278 94.3719L174.86 94ZM178.28 71.32L175.862 70.9527L175.435 73.7659H178.28V71.32ZM185.12 71.32V73.7659H187.948L187.541 70.9677L185.12 71.32ZM180.98 42.88V40.4341H178.153L178.56 43.2323L180.98 42.88ZM182.6 42.88L185.018 43.2473L185.446 40.4341H182.6V42.88ZM164.843 94.455L177.623 26.955L172.817 26.045L160.037 93.545L164.843 94.455ZM175.22 28.9459H188.36V24.0541H175.22V28.9459ZM185.955 26.9457L198.465 94.4457L203.275 93.5543L190.765 26.0543L185.955 26.9457ZM200.87 91.5541H188.45V96.4459H200.87V91.5541ZM190.871 93.6483L189.341 83.1183L184.5 83.8217L186.03 94.3517L190.871 93.6483ZM186.92 81.0241H176.48V85.9159H186.92V81.0241ZM174.063 83.0981L172.443 93.6281L177.278 94.3719L178.898 83.8419L174.063 83.0981ZM174.86 91.5541H162.44V96.4459H174.86V91.5541ZM178.28 73.7659H185.12V68.8741H178.28V73.7659ZM187.541 70.9677L183.401 42.5277L178.56 43.2323L182.7 71.6723L187.541 70.9677ZM180.98 45.3259H182.6V40.4341H180.98V45.3259ZM180.182 42.5127L175.862 70.9527L180.698 71.6873L185.018 43.2473L180.182 42.5127ZM217.295 94L214.892 94.455L215.269 96.4459H217.295V94ZM204.515 26.5V24.0541H201.563L202.112 26.955L204.515 26.5ZM216.935 26.5L219.353 26.1281L219.034 24.0541H216.935V26.5ZM224.675 76.81V79.2559H227.526L227.093 76.4381L224.675 76.81ZM223.055 76.81L220.636 76.4508L220.219 79.2559H223.055V76.81ZM230.525 26.5V24.0541H228.416L228.106 26.1408L230.525 26.5ZM242.945 26.5L245.35 26.9457L245.886 24.0541H242.945V26.5ZM230.435 94V96.4459H232.469L232.84 94.4457L230.435 94ZM219.698 93.545L206.918 26.045L202.112 26.955L214.892 94.455L219.698 93.545ZM204.515 28.9459H216.935V24.0541H204.515V28.9459ZM214.518 26.8719L222.258 77.1819L227.093 76.4381L219.353 26.1281L214.518 26.8719ZM224.675 74.3641H223.055V79.2559H224.675V74.3641ZM225.475 77.1692L232.945 26.8592L228.106 26.1408L220.636 76.4508L225.475 77.1692ZM230.525 28.9459H242.945V24.0541H230.525V28.9459ZM240.54 26.0543L228.03 93.5543L232.84 94.4457L245.35 26.9457L240.54 26.0543ZM230.435 91.5541H217.295V96.4459H230.435V91.5541ZM281.468 26.5H283.914V24.0541H281.468V26.5ZM281.468 38.65V41.0959H283.914V38.65H281.468ZM265.718 38.65V36.2041H263.272V38.65H265.718ZM265.718 52.15H263.272V54.5959H265.718V52.15ZM279.038 52.15H281.484V49.7041H279.038V52.15ZM279.038 64.3V66.7459H281.484V64.3H279.038ZM265.718 64.3V61.8541H263.272V64.3H265.718ZM265.718 81.85H263.272V84.2959H265.718V81.85ZM281.468 81.85H283.914V79.4041H281.468V81.85ZM281.468 94V96.4459H283.914V94H281.468ZM253.568 94H251.122V96.4459H253.568V94ZM253.568 26.5V24.0541H251.122V26.5H253.568ZM279.022 26.5V38.65H283.914V26.5H279.022ZM281.468 36.2041H265.718V41.0959H281.468V36.2041ZM263.272 38.65V52.15H268.164V38.65H263.272ZM265.718 54.5959H279.038V49.7041H265.718V54.5959ZM276.592 52.15V64.3H281.484V52.15H276.592ZM279.038 61.8541H265.718V66.7459H279.038V61.8541ZM263.272 64.3V81.85H268.164V64.3H263.272ZM265.718 84.2959H281.468V79.4041H265.718V84.2959ZM279.022 81.85V94H283.914V81.85H279.022ZM281.468 91.5541H253.568V96.4459H281.468V91.5541ZM256.014 94V26.5H251.122V94H256.014ZM253.568 28.9459H281.468V24.0541H253.568V28.9459ZM294.676 94H292.23V96.4459H294.676V94ZM294.676 26.5V24.0541H292.23V26.5H294.676ZM323.476 31.09L321.73 32.8023L321.738 32.8109L323.476 31.09ZM326.086 62.365L328.258 63.4909L326.086 62.365ZM320.686 68.26L318.301 68.8021L319.073 72.1992L322.006 70.3191L320.686 68.26ZM319.786 64.3L320.607 61.996L316.415 60.5022L317.401 64.8421L319.786 64.3ZM325.816 68.44L323.879 69.9328L323.886 69.9427L323.894 69.9525L325.816 68.44ZM327.976 94V96.4459H330.422V94H327.976ZM315.826 94H313.38V96.4459H315.826V94ZM314.656 71.86L312.864 73.5243L312.879 73.5406L312.894 73.5566L314.656 71.86ZM306.826 70.6V68.1541H304.38V70.6H306.826ZM306.826 94V96.4459H309.272V94H306.826ZM306.826 58.45H304.38V60.8959H306.826V58.45ZM314.656 57.235L316.418 58.9316L316.433 58.9156L316.449 58.8993L314.656 57.235ZM314.656 39.91L312.864 41.5743L312.879 41.5906L312.894 41.6066L314.656 39.91ZM306.826 38.65V36.2041H304.38V38.65H306.826ZM297.122 94V26.5H292.23V94H297.122ZM294.676 28.9459H311.326V24.0541H294.676V28.9459ZM311.326 28.9459C315.904 28.9459 319.276 30.2995 321.73 32.8023L325.223 29.3777C321.676 25.7605 316.949 24.0541 311.326 24.0541V28.9459ZM321.738 32.8109C324.206 35.3034 325.53 38.6632 325.53 43.15H330.422C330.422 37.6168 328.747 32.9366 325.214 29.3691L321.738 32.8109ZM325.53 43.15V53.95H330.422V43.15H325.53ZM325.53 53.95C325.53 56.8017 324.967 59.2093 323.915 61.2391L328.258 63.4909C329.725 60.6607 330.422 57.4583 330.422 53.95H325.53ZM323.915 61.2391C322.855 63.2827 321.352 64.9283 319.366 66.2009L322.006 70.3191C324.701 68.5917 326.797 66.3073 328.258 63.4909L323.915 61.2391ZM323.071 67.7179L322.171 63.7579L317.401 64.8421L318.301 68.8021L323.071 67.7179ZM318.965 66.604C321.222 67.4081 322.808 68.5433 323.879 69.9328L327.754 66.9472C326.004 64.6767 323.57 63.0519 320.607 61.996L318.965 66.604ZM323.894 69.9525C324.954 71.2994 325.53 72.9686 325.53 75.1H330.422C330.422 72.0114 329.559 69.2406 327.738 66.9275L323.894 69.9525ZM325.53 75.1V94H330.422V75.1H325.53ZM327.976 91.5541H315.826V96.4459H327.976V91.5541ZM318.272 94V75.1H313.38V94H318.272ZM318.272 75.1C318.272 73.2523 317.722 71.518 316.418 70.1634L312.894 73.5566C313.15 73.822 313.38 74.2477 313.38 75.1H318.272ZM316.449 70.1957C315.093 68.7357 313.26 68.1541 311.326 68.1541V73.0459C312.272 73.0459 312.66 73.3043 312.864 73.5243L316.449 70.1957ZM311.326 68.1541H306.826V73.0459H311.326V68.1541ZM304.38 70.6V94H309.272V70.6H304.38ZM306.826 91.5541H294.676V96.4459H306.826V91.5541ZM306.826 60.8959H311.326V56.0041H306.826V60.8959ZM311.326 60.8959C313.234 60.8959 315.056 60.3455 316.418 58.9316L312.894 55.5384C312.696 55.7445 312.298 56.0041 311.326 56.0041V60.8959ZM316.449 58.8993C317.722 57.528 318.272 55.8006 318.272 53.95H313.38C313.38 54.7994 313.151 55.262 312.864 55.5707L316.449 58.8993ZM318.272 53.95V43.15H313.38V53.95H318.272ZM318.272 43.15C318.272 41.3023 317.722 39.568 316.418 38.2134L312.894 41.6066C313.15 41.872 313.38 42.2977 313.38 43.15H318.272ZM316.449 38.2457C315.093 36.7857 313.26 36.2041 311.326 36.2041V41.0959C312.272 41.0959 312.66 41.3543 312.864 41.5743L316.449 38.2457ZM311.326 36.2041H306.826V41.0959H311.326V36.2041ZM304.38 38.65V58.45H309.272V38.65H304.38ZM345.068 90.85L343.321 92.5623L343.33 92.5709L345.068 90.85ZM340.568 75.19V72.7441H338.122V75.19H340.568ZM352.718 75.19H355.164V72.7441H352.718V75.19ZM353.888 82.075L352.095 83.7393L352.111 83.7556L352.126 83.7716L353.888 82.075ZM360.548 82.075L362.31 83.7716L362.325 83.7556L362.34 83.7393L360.548 82.075ZM361.628 70.015L364.052 69.6917V69.6917L361.628 70.015ZM361.133 68.935L359.305 70.5599L359.352 70.6137L359.403 70.6645L361.133 68.935ZM359.828 68.215L358.919 70.4859L358.986 70.5126L359.054 70.5354L359.828 68.215ZM357.218 67.36L356.51 69.7013L356.524 69.7054L356.538 69.7094L357.218 67.36ZM347.543 64.165L346.645 66.44L346.658 66.4452L346.671 66.4502L347.543 64.165ZM342.638 61.285L344.393 59.5815L342.638 61.285ZM340.838 57.325L338.406 57.5902L338.409 57.6149L338.412 57.6394L340.838 57.325ZM345.068 29.65L343.33 27.929L343.33 27.9291L345.068 29.65ZM369.368 29.65L367.621 31.3623L367.63 31.3709L369.368 29.65ZM373.868 45.31V47.7559H376.314V45.31H373.868ZM361.718 45.31H359.272V47.7559H361.718V45.31ZM360.548 38.47L358.755 40.1343L358.771 40.1506L358.786 40.1665L360.548 38.47ZM353.888 38.47L355.65 40.1665L355.665 40.1506L355.68 40.1343L353.888 38.47ZM352.808 52.555L350.383 52.8782V52.8783L352.808 52.555ZM353.258 53.635L351.43 55.2599L351.478 55.3137L351.528 55.3645L353.258 53.635ZM354.608 54.4L353.737 56.6856L353.785 56.704L353.834 56.7203L354.608 54.4ZM357.218 55.21L357.925 52.8687L357.915 52.8655L357.218 55.21ZM366.893 58.45L365.995 60.725L366.008 60.7302L366.021 60.7352L366.893 58.45ZM371.798 61.285L373.553 59.5815L371.798 61.285ZM373.553 65.29L371.121 65.5552L371.124 65.5799L371.127 65.6044L373.553 65.29ZM369.368 90.85L371.114 92.5623L369.368 90.85ZM357.218 92.9941C352.676 92.9941 349.295 91.6434 346.806 89.1291L343.33 92.5709C346.9 96.1766 351.62 97.8859 357.218 97.8859V92.9941ZM346.814 89.1377C344.335 86.609 343.014 83.2416 343.014 78.79H338.122C338.122 84.2984 339.8 88.9709 343.321 92.5623L346.814 89.1377ZM343.014 78.79V75.19H338.122V78.79H343.014ZM340.568 77.6359H352.718V72.7441H340.568V77.6359ZM350.272 75.19V78.79H355.164V75.19H350.272ZM350.272 78.79C350.272 80.6406 350.822 82.368 352.095 83.7393L355.68 80.4107C355.393 80.102 355.164 79.6394 355.164 78.79H350.272ZM352.126 83.7716C353.488 85.1855 355.31 85.7359 357.218 85.7359V80.8441C356.246 80.8441 355.848 80.5845 355.65 80.3784L352.126 83.7716ZM357.218 85.7359C359.126 85.7359 360.948 85.1855 362.31 83.7716L358.786 80.3784C358.588 80.5845 358.19 80.8441 357.218 80.8441V85.7359ZM362.34 83.7393C363.613 82.368 364.164 80.6406 364.164 78.79H359.272C359.272 79.6394 359.042 80.102 358.755 80.4107L362.34 83.7393ZM364.164 78.79V71.86H359.272V78.79H364.164ZM364.164 71.86C364.164 71.0368 364.133 70.2982 364.052 69.6917L359.203 70.3382C359.243 70.6318 359.272 71.1232 359.272 71.86H364.164ZM364.052 69.6917C363.935 68.8134 363.58 67.9233 362.862 67.2055L359.403 70.6645C359.325 70.5863 359.27 70.5009 359.236 70.4266C359.203 70.3563 359.201 70.3194 359.203 70.3383L364.052 69.6917ZM362.961 67.3101C362.286 66.5506 361.348 66.1437 360.601 65.8946L359.054 70.5354C359.272 70.6079 359.393 70.6653 359.445 70.694C359.469 70.7072 359.465 70.707 359.442 70.6896C359.419 70.6724 359.368 70.631 359.305 70.5599L362.961 67.3101ZM360.736 65.9441C360.024 65.6591 359.063 65.3478 357.898 65.0106L356.538 69.7094C357.653 70.0322 358.432 70.2909 358.919 70.4859L360.736 65.9441ZM357.925 65.0187C353.775 63.7647 350.614 62.7192 348.415 61.8798L346.671 66.4502C349.031 67.3508 352.321 68.4353 356.51 69.7013L357.925 65.0187ZM348.441 61.89C346.283 61.0381 345.026 60.2336 344.393 59.5815L340.883 62.9885C342.23 64.3764 344.243 65.4919 346.645 66.44L348.441 61.89ZM344.393 59.5815C343.824 58.995 343.416 58.1887 343.263 57.0106L338.412 57.6394C338.68 59.7013 339.472 61.535 340.883 62.9885L344.393 59.5815ZM343.269 57.0597C343.103 55.5363 343.014 53.4311 343.014 50.71H338.122C338.122 53.5089 338.213 55.8137 338.406 57.5902L343.269 57.0597ZM343.014 50.71V41.71H338.122V50.71H343.014ZM343.014 41.71C343.014 37.2232 344.338 33.8634 346.806 31.3709L343.33 27.9291C339.798 31.4966 338.122 36.1768 338.122 41.71H343.014ZM346.806 31.3709C349.295 28.8566 352.676 27.5059 357.218 27.5059V22.6141C351.62 22.6141 346.9 24.3234 343.33 27.929L346.806 31.3709ZM357.218 27.5059C361.795 27.5059 365.168 28.8595 367.621 31.3623L371.114 27.9377C367.568 24.3205 362.84 22.6141 357.218 22.6141V27.5059ZM367.63 31.3709C370.098 33.8634 371.422 37.2232 371.422 41.71H376.314C376.314 36.1768 374.638 31.4966 371.106 27.9291L367.63 31.3709ZM371.422 41.71V45.31H376.314V41.71H371.422ZM373.868 42.8641H361.718V47.7559H373.868V42.8641ZM364.164 45.31V41.71H359.272V45.31H364.164ZM364.164 41.71C364.164 39.8623 363.614 38.128 362.31 36.7734L358.786 40.1665C359.042 40.432 359.272 40.8577 359.272 41.71H364.164ZM362.34 36.8057C360.984 35.3457 359.152 34.7641 357.218 34.7641V39.6559C358.164 39.6559 358.551 39.9143 358.755 40.1343L362.34 36.8057ZM357.218 34.7641C355.284 34.7641 353.451 35.3457 352.095 36.8057L355.68 40.1343C355.884 39.9143 356.272 39.6559 357.218 39.6559V34.7641ZM352.126 36.7734C350.822 38.128 350.272 39.8623 350.272 41.71H355.164C355.164 40.8577 355.394 40.432 355.65 40.1665L352.126 36.7734ZM350.272 41.71V50.71H355.164V41.71H350.272ZM350.272 50.71C350.272 51.5332 350.303 52.2718 350.383 52.8782L355.232 52.2317C355.193 51.9382 355.164 51.4468 355.164 50.71H350.272ZM350.383 52.8783C350.491 53.6876 350.791 54.5416 351.43 55.2599L355.086 52.0101C355.16 52.0933 355.202 52.1714 355.223 52.2218C355.243 52.2686 355.238 52.2783 355.232 52.2317L350.383 52.8783ZM351.528 55.3645C352.162 55.9984 352.995 56.4027 353.737 56.6856L355.479 52.1144C355.246 52.026 355.095 51.9523 355.004 51.9008C354.907 51.8463 354.923 51.8407 354.987 51.9055L351.528 55.3645ZM353.834 56.7203C354.502 56.9428 355.401 57.2215 356.521 57.5545L357.915 52.8655C356.815 52.5385 355.974 52.2772 355.381 52.0796L353.834 56.7203ZM356.51 57.5513C360.657 58.8043 363.808 59.8616 365.995 60.725L367.791 56.175C365.418 55.2383 362.119 54.1357 357.925 52.8687L356.51 57.5513ZM366.021 60.7352C368.174 61.5566 369.419 62.3458 370.043 62.9885L373.553 59.5815C372.197 58.1842 370.172 57.0834 367.765 56.1648L366.021 60.7352ZM370.043 62.9885C370.592 63.5545 370.99 64.352 371.121 65.5552L375.984 65.0248C375.756 62.928 374.984 61.0555 373.553 59.5815L370.043 62.9885ZM371.127 65.6044C371.318 67.0734 371.422 69.1441 371.422 71.86H376.314C376.314 69.0559 376.208 66.7466 375.978 64.9756L371.127 65.6044ZM371.422 71.86V78.79H376.314V71.86H371.422ZM371.422 78.79C371.422 83.2416 370.1 86.609 367.621 89.1377L371.114 92.5623C374.635 88.9709 376.314 84.2984 376.314 78.79H371.422ZM367.621 89.1377C365.168 91.6405 361.795 92.9941 357.218 92.9941V97.8859C362.84 97.8859 367.568 96.1795 371.114 92.5623L367.621 89.1377ZM415.164 26.5H417.61V24.0541H415.164V26.5ZM415.164 38.65V41.0959H417.61V38.65H415.164ZM399.414 38.65V36.2041H396.968V38.65H399.414ZM399.414 52.15H396.968V54.5959H399.414V52.15ZM412.734 52.15H415.18V49.7041H412.734V52.15ZM412.734 64.3V66.7459H415.18V64.3H412.734ZM399.414 64.3V61.8541H396.968V64.3H399.414ZM399.414 81.85H396.968V84.2959H399.414V81.85ZM415.164 81.85H417.61V79.4041H415.164V81.85ZM415.164 94V96.4459H417.61V94H415.164ZM387.264 94H384.818V96.4459H387.264V94ZM387.264 26.5V24.0541H384.818V26.5H387.264ZM412.718 26.5V38.65H417.61V26.5H412.718ZM415.164 36.2041H399.414V41.0959H415.164V36.2041ZM396.968 38.65V52.15H401.86V38.65H396.968ZM399.414 54.5959H412.734V49.7041H399.414V54.5959ZM410.288 52.15V64.3H415.18V52.15H410.288ZM412.734 61.8541H399.414V66.7459H412.734V61.8541ZM396.968 64.3V81.85H401.86V64.3H396.968ZM399.414 84.2959H415.164V79.4041H399.414V84.2959ZM412.718 81.85V94H417.61V81.85H412.718ZM415.164 91.5541H387.264V96.4459H415.164V91.5541ZM389.71 94V26.5H384.818V94H389.71ZM387.264 28.9459H415.164V24.0541H387.264V28.9459Z" fill="#45E3EF"/>
</g>
<defs>
<filter id="filter0_d_299_2402" x="0.219543" y="0.601389" width="444.295" height="129.081" filterUnits="userSpaceOnUse" color-interpolation-filters="sRGB">
<feFlood flood-opacity="0" result="BackgroundImageFix"/>
<feColorMatrix in="SourceAlpha" type="matrix" values="0 0 0 0 0 0 0 0 0 0 0 0 0 0 0 0 0 0 127 0" result="hardAlpha"/>
<feOffset dy="4.89173"/>
<feGaussianBlur stdDeviation="14.6752"/>
<feComposite in2="hardAlpha" operator="out"/>
<feColorMatrix type="matrix" values="0 0 0 0 0.854206 0 0 0 0 0.8 0 0 0 0 1 0 0 0 0.8 0"/>
<feBlend mode="normal" in2="BackgroundImageFix" result="effect1_dropShadow_299_2402"/>
<feBlend mode="normal" in="SourceGraphic" in2="effect1_dropShadow_299_2402" result="shape"/>
</filter>
</defs>
</svg>
