<svg width="123" height="50" viewBox="0 0 123 50" fill="none" xmlns="http://www.w3.org/2000/svg">
<path d="M17.6959 16.1915V13.9555L15.5375 15.2228L15.4933 15.2501L10 18.4999V24.9998V31.5001L15.4933 34.7499L20.9954 38L26.4979 34.7499L32 31.5001V24.9998V18.4999L26.4979 15.2501L20.9954 12L19.1999 13.0591V15.3043L20.9954 14.2453L25.5513 16.9339L30.0981 19.6225V24.9998V30.3775L25.5513 33.0661L20.9954 35.7547L16.4487 33.0661L11.8931 30.3775V24.9998V19.6225L15.5375 17.4681V30.4952L17.6959 31.699V27.6526L19.6156 25.6338L24.5427 32.2695L26.4537 31.3098L21.093 24.1127L26.2235 18.6812L24.5339 17.6307L17.6959 25.0361V21.2069V16.1915Z" fill="white"/>
<path d="M44.96 18.04V32H42.16V26.06H36.18V32H33.38V18.04H36.18V23.78H42.16V18.04H44.96ZM50.4759 18.04V26.68C50.4759 27.6267 50.7226 28.3533 51.2159 28.86C51.7093 29.3533 52.4026 29.6 53.2959 29.6C54.2026 29.6 54.9026 29.3533 55.3959 28.86C55.8893 28.3533 56.1359 27.6267 56.1359 26.68V18.04H58.9559V26.66C58.9559 27.8467 58.6959 28.8533 58.1759 29.68C57.6693 30.4933 56.9826 31.1067 56.1159 31.52C55.2626 31.9333 54.3093 32.14 53.2559 32.14C52.2159 32.14 51.2693 31.9333 50.4159 31.52C49.5759 31.1067 48.9093 30.4933 48.4159 29.68C47.9226 28.8533 47.6759 27.8467 47.6759 26.66V18.04H50.4759ZM69.5813 24.84C70.3679 24.9867 71.0146 25.38 71.5213 26.02C72.0279 26.66 72.2813 27.3933 72.2813 28.22C72.2813 28.9667 72.0946 29.6267 71.7213 30.2C71.3613 30.76 70.8346 31.2 70.1413 31.52C69.4479 31.84 68.6279 32 67.6813 32H61.6613V18.04H67.4213C68.3679 18.04 69.1813 18.1933 69.8613 18.5C70.5546 18.8067 71.0746 19.2333 71.4213 19.78C71.7813 20.3267 71.9613 20.9467 71.9613 21.64C71.9613 22.4533 71.7413 23.1333 71.3012 23.68C70.8746 24.2267 70.3013 24.6133 69.5813 24.84ZM64.4613 23.8H67.0213C67.6879 23.8 68.2013 23.6533 68.5613 23.36C68.9213 23.0533 69.1013 22.62 69.1013 22.06C69.1013 21.5 68.9213 21.0667 68.5613 20.76C68.2013 20.4533 67.6879 20.3 67.0213 20.3H64.4613V23.8ZM67.2813 29.72C67.9613 29.72 68.4879 29.56 68.8613 29.24C69.2479 28.92 69.4413 28.4667 69.4413 27.88C69.4413 27.28 69.2413 26.8133 68.8413 26.48C68.4413 26.1333 67.9013 25.96 67.2213 25.96H64.4613V29.72H67.2813ZM77.3128 20.3V23.8H82.0128V26.02H77.3128V29.72H82.6128V32H74.5128V18.02H82.6128V20.3H77.3128ZM92.3573 32L89.2773 26.56H87.9573V32H85.1573V18.04H90.3973C91.4773 18.04 92.3973 18.2333 93.1573 18.62C93.9173 18.9933 94.484 19.5067 94.8573 20.16C95.244 20.8 95.4373 21.52 95.4373 22.32C95.4373 23.24 95.1707 24.0733 94.6373 24.82C94.104 25.5533 93.3107 26.06 92.2573 26.34L95.5973 32H92.3573ZM87.9573 24.46H90.2973C91.0573 24.46 91.624 24.28 91.9973 23.92C92.3707 23.5467 92.5573 23.0333 92.5573 22.38C92.5573 21.74 92.3707 21.2467 91.9973 20.9C91.624 20.54 91.0573 20.36 90.2973 20.36H87.9573V24.46ZM104.45 32.14C103.143 32.14 101.943 31.8333 100.85 31.22C99.7565 30.6067 98.8898 29.76 98.2498 28.68C97.6098 27.5867 97.2898 26.3533 97.2898 24.98C97.2898 23.62 97.6098 22.4 98.2498 21.32C98.8898 20.2267 99.7565 19.3733 100.85 18.76C101.943 18.1467 103.143 17.84 104.45 17.84C105.77 17.84 106.97 18.1467 108.05 18.76C109.143 19.3733 110.003 20.2267 110.63 21.32C111.27 22.4 111.59 23.62 111.59 24.98C111.59 26.3533 111.27 27.5867 110.63 28.68C110.003 29.76 109.143 30.6067 108.05 31.22C106.957 31.8333 105.757 32.14 104.45 32.14ZM104.45 29.64C105.29 29.64 106.03 29.4533 106.67 29.08C107.31 28.6933 107.81 28.1467 108.17 27.44C108.53 26.7333 108.71 25.9133 108.71 24.98C108.71 24.0467 108.53 23.2333 108.17 22.54C107.81 21.8333 107.31 21.2933 106.67 20.92C106.03 20.5467 105.29 20.36 104.45 20.36C103.61 20.36 102.863 20.5467 102.21 20.92C101.57 21.2933 101.07 21.8333 100.71 22.54C100.35 23.2333 100.17 24.0467 100.17 24.98C100.17 25.9133 100.35 26.7333 100.71 27.44C101.07 28.1467 101.57 28.6933 102.21 29.08C102.863 29.4533 103.61 29.64 104.45 29.64Z" fill="white"/>
</svg>
